<svg xmlns="http://www.w3.org/2000/svg" viewBox="0 0 1200 630">
  <path d="M569.68,134.84c-28.37,8-55.17,30.52-68.28,56.93-7.63,15.65-12.91,36.39-12.91,50.87,0,28,13.1,58.49,34,79.43,21.71,21.71,47.15,32.08,78.45,32.08,50.28,0,93.32-33.06,107.6-82.95,5.09-17.61,3.33-50.47-3.72-68.86C693.12,171.82,665.54,145.8,635,136,615.85,130,588.26,129.36,569.68,134.84Zm29.93,61.24c3.91,3.91,2.74,13.69-5.48,41.86-4.3,14.87-7,27.78-6.06,28.76,1.37,1.37,7,.78,32.08-3.72,6.07-1,7.24-.78,7.24,2,0,8.61-37.95,16.63-47.93,10.17-2.74-1.76-4.89-4.69-4.89-6.65-.2-2.74,3.52-18.58,16.82-72.38C592.17,193.14,596.48,193,599.61,196.08Z" fill="#28646e"/>
</svg>