<svg data-v-70b83f88="" version="1.0" xmlns="http://www.w3.org/2000/svg" xmlns:xlink="http://www.w3.org/1999/xlink"
    width="100%" height="100%" viewBox="0 0 340.000000 250.000000" preserveAspectRatio="xMidYMid meet"
    color-interpolation-filters="sRGB" style="margin: auto;">
    <g data-v-70b83f88="" fill="#fc51fa" class="bordersvg b-d1" transform="translate(100.43000030517578,79.25)">
        <polyline stroke="#fc51fa" stroke-width="3" fill-opacity="0" fill="#ffffff"
            points="69.56999969482422,20 69.56999969482422,10 0,0 0,91.5 69.56999969482422,81.5 69.56999969482422,71.5">
        </polyline>
        <g transform="translate(0,20)">
            <g>
                <rect data-gra="graph-name-bg" stroke-width="2" class="i-icon-bg" x="0" y="0" width="139.13999938964844"
                    height="51.5" fill-opacity="0"></rect>
                <!---->
                <!---->
            </g>
            <g transform="translate(10,3)">
                <g data-gra="path-name" fill-rule="" class="tp-name" fill="url(#81f8c96f-705d-480a-b68a-2f841ba24bab)">
                    <g transform="scale(1)">
                        <g>
                            <path
                                d="M39.39-45.5L39.39-45.5Q40.95-45.5 41.93-44.46 42.9-43.42 42.9-41.86L42.9-41.86 42.9-3.97Q42.9-2.27 41.76-1.14 40.63 0 38.94 0L38.94 0Q38.09 0 37.21-0.29 36.34-0.58 35.88-1.1L35.88-1.1 10.34-33.54 12.03-34.58 12.03-3.64Q12.03-2.08 11.02-1.04 10.01 0 8.38 0L8.38 0Q6.83 0 5.85-1.04 4.88-2.08 4.88-3.64L4.88-3.64 4.88-41.54Q4.88-43.23 6.01-44.36 7.15-45.5 8.84-45.5L8.84-45.5Q9.75-45.5 10.72-45.14 11.7-44.79 12.16-44.07L12.16-44.07 36.92-12.48 35.81-11.7 35.81-41.86Q35.81-43.42 36.79-44.46 37.77-45.5 39.39-45.5ZM56.74 0L56.74 0Q54.92 0 53.79-1.14 52.65-2.27 52.65-3.97L52.65-3.97 52.65-41.54Q52.65-43.23 53.79-44.36 54.92-45.5 56.61-45.5L56.61-45.5 77.74-45.5Q79.43-45.5 80.57-44.43 81.7-43.36 81.7-41.66L81.7-41.66Q81.7-40.23 80.57-39.13 79.43-38.02 77.74-38.02L77.74-38.02 60.19-38.02 60.77-38.8 60.77-25.74 60.32-26.59 74.81-26.59Q76.5-26.59 77.64-25.51 78.78-24.44 78.78-22.75L78.78-22.75Q78.78-21.32 77.64-20.21 76.5-19.11 74.81-19.11L74.81-19.11 60.19-19.11 60.77-19.7 60.77-3.97Q60.77-2.27 59.57-1.14 58.37 0 56.74 0ZM105.56 0L105.56 0Q103.74 0 102.57-1.14 101.4-2.27 101.4-3.97L101.4-3.97 101.4-41.66 109.85-41.66 109.85-3.97Q109.85-2.27 108.65-1.14 107.44 0 105.56 0ZM120.06-38.02L91.2-38.02Q89.5-38.02 88.37-39.07 87.23-40.11 87.23-41.8L87.23-41.8Q87.23-43.48 88.37-44.49 89.5-45.5 91.2-45.5L91.2-45.5 120.06-45.5Q121.75-45.5 122.88-44.46 124.02-43.42 124.02-41.73L124.02-41.73Q124.02-40.04 122.88-39.03 121.75-38.02 120.06-38.02L120.06-38.02Z"
                                transform="translate(-4.880000114440918, 45.5)"></path>
                        </g>
                        <!---->
                        <!---->
                        <!---->
                        <!---->
                        <!---->
                        <!---->
                        <!---->
                    </g>
                </g>
                <!---->
            </g>
        </g>
    </g>
    <defs v-gra="od">
        <linearGradient x1="0" y1="1" x2="0" y2="0" id="81f8c96f-705d-480a-b68a-2f841ba24bab">
            <stop offset="0%" stop-color="#fc51fa"></stop>
            <stop offset="50%" stop-color="#fdaf42"></stop>
            <stop offset="100%" stop-color="#2cd4ff"></stop>
        </linearGradient>
        <filter id="42443b3f1de60f6b6fd3b6a9844b4764" filterUnits="userSpaceOnUse">
            <feColorMatrix type="matrix" values="0 0 0 0 0.99609375  0 0 0 0 0.99609375  0 0 0 0 0.99609375  0 0 0 1 0">
            </feColorMatrix>
        </filter>
    </defs>
</svg>