<svg fill="none" viewBox="0 0 24 24" xmlns="http://www.w3.org/2000/svg" class="icon" aria-hidden="true">
<path d="M10.084 7.606c3.375-1.65 7.65-1.154 10.493 1.487 3.497 3.25 3.497 8.519 0 11.77-3.498 3.25-9.167 3.25-12.665 0-.897-.834-2.488-2.96-2.488-5.085" stroke="#fff" stroke-width="1.4" stroke-miterlimit="10" stroke-linecap="round" stroke-linejoin="round"></path><path d="M17.392 14.78s1.532-1.318-.053-2.79c-1.585-1.473-3.17-.404-3.719.403-.549.807.495 2.082.93 2.69.434.61 1.364 2.182-.054 3.202-1.417 1.012-3.002.658-4.153-.708-1.15-1.367-.602-3.365 0-3.924M17.338 11.982l1.159-1.076M9.87 18.922l.937-.871" stroke="#fff" stroke-width="1.4" stroke-miterlimit="10" stroke-linecap="round" stroke-linejoin="round"></path><path d="M.8 1.205s7.15 4.673 8.773 6.182c1.623 1.508 3.231 4.008 1.616 5.509-2.195 2.04-4.054.595-6.737-.75-.884-.447-3.15-1.777-3.15-1.777M10.136.9l1.047 3.188" stroke="#fff" stroke-width="1.4" stroke-miterlimit="10" stroke-linecap="round" stroke-linejoin="round">
</path>
</svg>