<svg xmlns="http://www.w3.org/2000/svg" xmlns:xlink="http://www.w3.org/1999/xlink" width="68" height="64" viewBox="0 0 68 64">
    <defs>
        <path id="zdhfhxt0ca" d="M0.105 0.033L6.2 0.033 6.2 8.829 0.105 8.829z"/>
        <path id="aw3ydqbo5c" d="M0.156 0.031L63.424 0.031 63.424 57.702 0.156 57.702z"/>
    </defs>
    <g fill="none" fill-rule="evenodd">
        <g>
            <g>
                <g>
                    <g transform="translate(-100 -240) translate(100 240) translate(56.61 .137)">
                        <mask id="o2l4bg8awb" fill="#fff">
                            <use xlink:href="#zdhfhxt0ca"/>
                        </mask>
                        <path fill="#50E3C2" d="M.47 8.788l.007.003c.329.128.544-.09.717-.256.864-.822 4.21-4.74 4.82-5.637.307-.45.204-.783-.1-1.044-.4-.345-1.086-.675-2.252-1.128C2.498.273 1.77.051 1.24.033.836.021.533.195.449.732c-.166 1.07-.4 6.2-.331 7.384.014.24.022.544.351.672" mask="url(#o2l4bg8awb)"/>
                    </g>
                    <path fill="#50E3C2" d="M67.79 10.52c-.199-1.207-.377-1.931-.632-2.38-.193-.342-.498-.502-1.006-.29-1.014.424-5.584 2.928-6.578 3.61-.2.136-.46.304-.404.645l.002.008c.056.341.354.405.586.464 1.152.285 6.253 1.006 7.342 1.043.547.018.783-.242.856-.632.096-.515.032-1.26-.166-2.467M10.196 8.672c.173.167.388.384.717.256l.008-.003c.329-.128.337-.433.351-.671.069-1.185-.165-6.315-.332-7.385-.083-.537-.386-.71-.789-.698-.53.017-1.259.239-2.424.692-1.165.454-1.851.783-2.252 1.128-.303.262-.406.594-.1 1.044.612.898 3.957 4.815 4.82 5.637M8.829 12.113v-.008c.057-.341-.203-.508-.403-.646-.994-.68-5.564-3.185-6.578-3.609-.508-.212-.813-.052-1.006.29-.255.45-.433 1.173-.632 2.38-.198 1.208-.262 1.953-.166 2.468.073.39.309.65.856.632 1.089-.037 6.19-.758 7.342-1.043.232-.059.53-.123.587-.464" transform="translate(-100 -240) translate(100 240)"/>
                    <g transform="translate(-100 -240) translate(100 240) translate(2.21 6.265)">
                        <mask id="t5l08kkf1d" fill="#fff">
                            <use xlink:href="#aw3ydqbo5c"/>
                        </mask>
                        <path fill="#28646E" d="M58.956 33.534c-.588-.692-1.409-1.113-2.313-1.185-.903-.072-1.782.21-2.472.8l-.179.151c-.767-.739-1.648-1.61-1.848-1.944-.59-.984-.874-1.879-1.138-2.858 1.071-1.347 1.943-2.574 2.568-3.5 1.06-1.572 1.14-2.936 1.021-3.804-.16-1.171-.768-2.188-1.71-2.865-.276-.197-.567-.35-.864-.47.25-.462.447-.924.565-1.385.499-1.948-.377-3.978-2.128-4.938-.32-.176-.682-.314-1.07-.404.756-2.251-.14-4.244-1.503-5.285-.876-.669-1.883-.959-2.878-.895-.113-1.163-.674-2.298-1.834-3.163-1.897-1.415-4.911-1.465-7 1.174-.113.142-.227.278-.34.417l-.09-.06c-1.403-.942-2.51-1.686-3.696-2.224-1.959-.89-4.126-.281-5.424 1.468l-.057-.067C24.023-.54 20.906-.421 19.086.975c-1.396 1.071-1.845 2.587-1.658 4.045-.722.098-1.408.375-1.985.786-1.348.958-2.272 2.779-1.708 4.885-.475.077-.94.236-1.382.484-1.78 1.003-2.61 3.121-2.02 5.152.122.417.334.884.607 1.379-.677.25-1.294.687-1.775 1.295-1.053 1.328-1.544 3.638.235 6.138.857 1.203 1.686 2.273 2.535 3.27.037.044.08.083.118.124-.26.965-.545 1.85-1.128 2.824-.18.3-.91 1.034-1.613 1.716-.675-.535-1.512-.792-2.375-.724-.904.072-1.726.493-2.313 1.185L.964 37.84c-1.213 1.427-1.04 3.576.385 4.79l16.734 14.261c.62.528 1.39.811 2.195.811.092 0 .185-.004.278-.011.904-.073 1.725-.494 2.313-1.185l3.66-4.306c.587-.691.871-1.57.798-2.475-.064-.806-.405-1.545-.966-2.112.865-.873 1.619-1.562 2.21-2.021.992-.77 1.94-1.351 2.963-1.892 1.146.606 2.055 1.187 2.963 1.892.652.505 1.501 1.293 2.479 2.293-.417.524-.669 1.158-.724 1.84-.072.904.211 1.784.799 2.475l3.66 4.306c.588.691 1.41 1.112 2.313 1.185.093.007.185.011.278.011.804 0 1.575-.283 2.195-.81L62.23 42.63c1.425-1.214 1.598-3.363.385-4.79l-3.66-4.306z" mask="url(#t5l08kkf1d)"/>
                    </g>
                    <path fill="#FFF" d="M28.985 49.534c-.733.57-1.622 1.385-2.644 2.424L13.77 41.246c1.03-1.008 1.575-1.604 1.88-2.113.68-1.135 1.048-2.17 1.332-3.163.028 0 .055.005.083.005.982 0 2.038-.352 3-1.17.832-.707 1.361-1.643 1.517-2.654h.01c1.036 0 2.097-.416 3.005-1.246.832-.76 1.437-1.81 1.638-2.961.279.055.558.082.835.082 1.23 0 2.402-.517 3.224-1.317.952-.926 1.555-2.333 1.326-3.848 1.023-.13 2.036-.588 2.887-1.464 1.139-1.171 1.696-2.96.96-4.837 1.833-1.755 3.569-3.429 5.214-5.507.977-1.234 2.185-1.212 2.948-.643.65.484 1.05 1.42.227 2.598-.893 1.28-1.6 2.028-2.58 3.063-.433.46-.926.98-1.504 1.62-.544.602-.498 1.531.103 2.075.281.254.633.38.984.38.4 0 .799-.163 1.088-.484.556-.615 1.037-1.123 1.46-1.571.972-1.028 1.75-1.851 2.697-3.177.063-.05.123-.103.18-.164.737-.804 1.532-.683 2.031-.302.583.445.971 1.435.144 2.756-.324.517-.746 1.086-1.226 1.682-.024.025-.049.047-.073.073-.07.074-.13.154-.18.238-.912 1.102-1.996 2.276-3.018 3.359-.557.589-.532 1.519.057 2.076.284.268.646.402 1.008.402.389 0 .777-.154 1.066-.46 1.118-1.182 2.31-2.476 3.315-3.711.628-.62 1.28-.798 1.85-.485.47.257.888.878.695 1.631-.327 1.275-2.178 3.192-3.665 4.731-.247.256-.491.508-.727.756-.56.587-.537 1.517.05 2.077.283.27.648.405 1.011.405.388 0 .774-.152 1.062-.455.232-.242.47-.49.713-.74.386-.4.774-.803 1.153-1.207.087-.072.167-.153.238-.247l.077-.094.066-.072c.507-.53 1.072-.454 1.453-.18.543.389.86 1.312-.033 2.635-.939 1.392-2.465 3.501-4.398 5.638-4.07 4.498-8.213 8.083-10.812 9.355-.973.476-1.842.878-2.683 1.266-2.432 1.124-4.353 2.012-6.474 3.657M38.504 49.534c-.506-.393-1.022-.755-1.566-1.105.754-.348 1.59-.737 2.493-1.18 2.923-1.43 7.23-5.11 11.55-9.859.22.558.494 1.136.857 1.743.328.547.931 1.194 2.12 2.345L41.38 52.196c-1.122-1.155-2.088-2.05-2.877-2.662M31.069 10.756c.129-.211.83-1.24 1.976-.72.9.408 1.85 1.034 3.02 1.819-.748.774-1.64 1.68-2.469 2.475-.686-.295-1.973-1.142-2.253-1.365-1.061-.845-.358-2.072-.274-2.209M23.081 9.572c.771-.592 2.136-.488 3.447 1.077.401.48.83.972 1.308 1.501.097 1.19.668 2.308 1.681 3.114.643.513 2.083 1.31 2.856 1.726.631.882.652 1.721.032 2.359-.674.694-1.927.94-2.922.032-1.911-1.745-5.117-5.365-6.474-7.308-.82-1.176-.474-2.082.072-2.501" transform="translate(-100 -240) translate(100 240)"/>
                    <path fill="#FFF" d="M19.351 14.466c.524-.373 1.439-.439 2.206.563 1.484 1.936 4.248 4.97 5.95 6.523.126.116.514.507.588.59 1.165 1.289.413 2.21.155 2.46-.419.408-1.369.866-2.275-.003-2.272-2.178-5.985-6.235-6.814-7.559-.779-1.244-.412-2.145.19-2.574M16.001 20c.668-.376 1.46-.383 2.38.745.847 1.041 3.432 3.861 4.476 5.059.84.964 1.2 2.24.35 2.894-1.072.826-2.148.45-2.842-.393-2.1-2.192-4.647-5.309-5.004-6.536-.244-.835.146-1.49.64-1.768M14 29.699c-.71-.996-.85-1.986-.327-2.607.272-.324 1.167-.594 1.62-.042.955 1.163 2.101 2.466 2.94 3.333.804 1.063.418 1.77-.067 2.183-.537.458-1.404.654-1.788.203-.794-.933-1.572-1.937-2.378-3.07" transform="translate(-100 -240) translate(100 240)"/>
                    <path fill="#50E3C2" d="M26.504 56.561l-3.66 4.306c-.107.126-.242.155-.313.16-.072.007-.21 0-.336-.108L5.461 46.66c-.194-.165-.217-.457-.053-.65l3.66-4.306c.108-.127.243-.155.314-.16.01-.002.023-.002.037-.002.076 0 .191.018.299.11l16.734 14.26c.127.108.155.243.16.314.007.071 0 .21-.108.336" transform="translate(-100 -240) translate(100 240)"/>
                    <path fill="#D7ECEC" d="M62.54 46.659l-16.735 14.26c-.126.108-.264.115-.336.109-.07-.006-.206-.034-.313-.161l-3.66-4.306c-.165-.193-.142-.485.052-.65l16.734-14.26c.108-.092.223-.11.3-.11l.036.001c.07.006.206.034.314.16l3.66 4.307c.164.193.14.485-.052.65" transform="translate(-100 -240) translate(100 240)"/>
                </g>
            </g>
        </g>
    </g>
</svg>